<svg xmlns="http://www.w3.org/2000/svg" width="102.682" height="66.507" viewBox="0 0 102.682 66.507">
  <path id="Sketch_-_people" d="M46.274-50.826a.937.937,0,0,1-.552.473,54.787,54.787,0,0,1-12.142,3,18.153,18.153,0,0,1-6.7-.237,6.62,6.62,0,0,1-4.257-2.917,18.117,18.117,0,0,0-1.577,7.175,15.971,15.971,0,0,0,3,10.486q3.311,4.415,9.776,4.652a14,14,0,0,0,6.544-1.183,1.412,1.412,0,0,1,.788-.394h.079A12.055,12.055,0,0,0,46.353-34.9a16.155,16.155,0,0,0,1.892-7.411A17.24,17.24,0,0,0,46.274-50.826Zm-4.1-4.967a1.012,1.012,0,0,1-.946,1.1,36.3,36.3,0,0,1-14.98-.788h-.079q-.473.394-.867.788a30.613,30.613,0,0,0,9.422,1.971,22.925,22.925,0,0,0,9.264-1.419Q43.12-55,42.174-55.793ZM40.518-25.675v-.552l.158-.315a1.99,1.99,0,0,1-.237-.473,15.965,15.965,0,0,1-6.623,1.025,18.938,18.938,0,0,1-3.627-.473,5.156,5.156,0,0,1-.315.552A26.2,26.2,0,0,0,33.659-21.1a2.213,2.213,0,0,0,.867.552l.788-.158a1.06,1.06,0,0,1,.946.315,3.307,3.307,0,0,0,1.261-.946,12.615,12.615,0,0,0,2.523-3.075A13.154,13.154,0,0,0,40.518-25.675Zm-5.125,7.648a2.763,2.763,0,0,1-.867-.158,8.083,8.083,0,0,0-1.261.71q-1.1.631-3.075,2.05l-2.838,1.971a7.356,7.356,0,0,1-1.183.552,1.811,1.811,0,0,1-1.656-.158,1.743,1.743,0,0,1-.552-1.735,3.059,3.059,0,0,1,.158-.394V-21.1a21.117,21.117,0,0,0-5.046,3.075,16.045,16.045,0,0,0-2.8,3.627,11.553,11.553,0,0,0-1.222,2.957,37.808,37.808,0,0,0-.473,3.824q-.237,2.681-.473,4.336a1.151,1.151,0,0,1-.434.749,1.018,1.018,0,0,1-.828.2,1.151,1.151,0,0,1-.749-.434,1.018,1.018,0,0,1-.2-.828q.237-1.419.473-4.218a36.759,36.759,0,0,1,.512-4.1A14.534,14.534,0,0,1,14.3-15.386,17.686,17.686,0,0,1,17.5-19.6a10.336,10.336,0,0,1,1.577-1.261q.946-.631,1.616-.986t1.813-.907q1.143-.552,1.537-.788l.158-.079a2.535,2.535,0,0,1,.2-.67q.2-.512.276-.749.315-1.1,1.34-.71a.938.938,0,0,1,.631.473,5,5,0,0,0,1.419-1.892,13.4,13.4,0,0,1-7.1-6.386,18.981,18.981,0,0,1-2.129-9.855,20.792,20.792,0,0,1,1.7-7.924,16.206,16.206,0,0,1,4.809-6.307,11.332,11.332,0,0,1,7.293-2.562.976.976,0,0,1,1.1,1.1.976.976,0,0,1-1.1,1.1,9.537,9.537,0,0,0-4.021.867,37.375,37.375,0,0,0,11.984.315,15.953,15.953,0,0,0-5.913-1.892,1.282,1.282,0,0,1-.71-.434.9.9,0,0,1-.237-.788,1.293,1.293,0,0,1,.434-.749A.952.952,0,0,1,35-60.918a17.2,17.2,0,0,1,8.633,3.508,16.649,16.649,0,0,1,5.282,6.82,20.606,20.606,0,0,1,1.537,8.278,19.339,19.339,0,0,1-2.168,8.357,14.449,14.449,0,0,1-5.716,5.992.7.7,0,0,1,.315.079,1.039,1.039,0,0,1,.394,1.419,6.112,6.112,0,0,0,1.892,1.735,1.009,1.009,0,0,1,.631-.394,1.11,1.11,0,0,1,.828.158,1.319,1.319,0,0,1,.512.71,1.4,1.4,0,0,0,.158.631q.315.158,3.311,1.5a17.494,17.494,0,0,1,3.784,1.971,12.231,12.231,0,0,1,4.652,6.7,30.2,30.2,0,0,1,1.419,9.146.976.976,0,0,1-1.1,1.1.976.976,0,0,1-1.1-1.1,27.8,27.8,0,0,0-1.222-8.278,10.728,10.728,0,0,0-3.9-5.834,27.456,27.456,0,0,0-3.39-1.735l-1.656-.71q.158.631.315,1.183.867,3.548.237,5.2a1.224,1.224,0,0,1-.946.867,3.654,3.654,0,0,1-.71-.079,1.3,1.3,0,0,1-.394-.079h-.158a17.614,17.614,0,0,1-5.755-1.143A23.927,23.927,0,0,1,35.394-18.028Zm-9.067,2.6,2.523-1.813q2.05-1.419,3.233-2.129l.079-.079a21.872,21.872,0,0,1-3.627-4.573,9.5,9.5,0,0,1-2.208,1.735v6.859Zm20.341-.552a13.473,13.473,0,0,0-.473-3.154q-.158-.867-.631-2.523l-.158-.394a14.9,14.9,0,0,1-3.075-2.129l-.237.552a13.34,13.34,0,0,1-3,3.863,5.307,5.307,0,0,1-1.1.867,16.2,16.2,0,0,0,8.594,2.917ZM24.277-52.087a4.249,4.249,0,0,0,3.154,2.365,14.952,14.952,0,0,0,5.834.158,33.136,33.136,0,0,0,5.834-1.1A30.561,30.561,0,0,1,24.119-52.8a.605.605,0,0,0-.237-.079l-.158.237A.952.952,0,0,1,24.277-52.087Zm6.859,8.278-.158,1.261a1.282,1.282,0,0,1-.434.71.9.9,0,0,1-.788.237,1.293,1.293,0,0,1-.749-.434.952.952,0,0,1-.237-.828l.158-1.261a1.282,1.282,0,0,1,.434-.71.9.9,0,0,1,.788-.237,1.293,1.293,0,0,1,.749.434A.952.952,0,0,1,31.136-43.809Zm8.594-.867-.158.946a1.29,1.29,0,0,0-.079.315v1.025a.976.976,0,0,1-1.1,1.1.976.976,0,0,1-1.1-1.1v-1.261a2.157,2.157,0,0,1,.079-.473q.079-.473.158-.867A1.1,1.1,0,0,1,38-45.741a1.066,1.066,0,0,1,.828-.2,1.083,1.083,0,0,1,.71.473A1,1,0,0,1,39.73-44.676Zm-8.2,9.461a3.385,3.385,0,0,0,2.286,1.025c2-.1,2.286-1.025,3.311-1.025.736,0,.867.013.867.749s-.726,1.132-1.577,1.7a4.536,4.536,0,0,1-2.838.631,7.077,7.077,0,0,1-2.444-.631c-.263-.053-.71-.6-.867-.867a1.025,1.025,0,0,1-.118-.828,1.092,1.092,0,0,1,.512-.67A1,1,0,0,1,31.53-35.215ZM15.447-3.521a49.558,49.558,0,0,0,9.579,1.656,64.293,64.293,0,0,0,10.959-.158q5.874-.552,9.816-1.1T56.208-4.782a1,1,0,0,1,.788.2,1.083,1.083,0,0,1,.473.71,1.066,1.066,0,0,1-.2.828,1.1,1.1,0,0,1-.749.473Q49.585-1.392,46.116-.919q-3.942.552-9.974,1.1A68.462,68.462,0,0,1,24.829.343,54.555,54.555,0,0,1,14.816-1.313a1.281,1.281,0,0,1-.631-.552,1.025,1.025,0,0,1-.118-.828,1.092,1.092,0,0,1,.512-.67A1.238,1.238,0,0,1,15.447-3.521Zm19.868-9.146a.976.976,0,0,1,1.1,1.1.976.976,0,0,1-1.1,1.1.976.976,0,0,1-1.1-1.1A.976.976,0,0,1,35.315-12.666Zm.71,6.071a.976.976,0,0,1,1.1,1.1.976.976,0,0,1-1.1,1.1.976.976,0,0,1-1.1-1.1A.976.976,0,0,1,36.024-6.6ZM97.206-41.049a14.925,14.925,0,0,1-9.382-1.656,28.277,28.277,0,0,1-10.88-9.776l-1.1-1.735a21.479,21.479,0,0,0-1.261,2.444,18.86,18.86,0,0,0-1.656,6.78,13.236,13.236,0,0,0,1.064,6.347,10.035,10.035,0,0,0,3.982,4.612,11.62,11.62,0,0,0,10.171,1.1,1.3,1.3,0,0,0,.079-.394,1.319,1.319,0,0,1,.512-.71,1.11,1.11,0,0,1,.828-.158.992.992,0,0,1,.552.394,15.994,15.994,0,0,0,4.415-3.39A21.182,21.182,0,0,0,97.206-41.049Zm1.577-4.257Q92.4-43.021,86.878-47.751q-4.415-3.706-7.411-10.959a12.721,12.721,0,0,0-2.286,2.444q.158.315,1.656,2.523a25.049,25.049,0,0,0,9.934,9.067q5.125,2.523,9.54,1.1Zm.158-4.967a11.272,11.272,0,0,0-1.34-3.863,12.656,12.656,0,0,0-3.114-3.784,36.46,36.46,0,0,0-4.928-3.233,9.459,9.459,0,0,0-2.681-.394,15.307,15.307,0,0,0,4.336,8A10.414,10.414,0,0,0,98.94-50.274Zm-2.286,2.05a15.691,15.691,0,0,0,2.365.473H99.1v-.315A9.417,9.417,0,0,1,96.654-48.224ZM65.59-35.373a25.4,25.4,0,0,0,3.469,1.261,10.169,10.169,0,0,0,4.967-.315,12.424,12.424,0,0,1-2.759-5.361,7.738,7.738,0,0,1-3.784,3.863A7.193,7.193,0,0,1,65.59-35.373ZM81.043-11.641a.227.227,0,0,1-.158-.079q-5.755-3.233-6.465-3.706-2.444-1.656-2.523-3.154-.079-1.261,1.735-3.469l1.813-2.129-.394.237-2.759.788q-1.892.552-3.154,1.064a11.5,11.5,0,0,0-2.365,1.3Q63.619-18.5,62.988-12.9a31.682,31.682,0,0,0,.473,9.776.663.663,0,0,1-.079.552A61.956,61.956,0,0,0,77.18-.761,51.985,51.985,0,0,1,81.043-11.641Zm3.311-7.1q2.6-6.071,2.6-9.934a.976.976,0,0,1,1.1-1.1h.158q-.079-.394-.158-.867a13.543,13.543,0,0,1-6.307.394,11.875,11.875,0,0,1-1.577,2.917,34.229,34.229,0,0,0,4.1,8.357A.605.605,0,0,0,84.355-18.737Zm-5.6-5.913L77.5-23.073l-1.261,1.419a6.505,6.505,0,0,1-.946,1.025A5.093,5.093,0,0,0,74.105-18.7q0,.434,1.5,1.38.71.473,6.386,3.706l.394-.867,1.34-2.838a1.028,1.028,0,0,1-1.34-.394A48.562,48.562,0,0,1,78.757-24.65Zm12.93,3.233a1.479,1.479,0,0,0,.631.71,9.861,9.861,0,0,0,1.892,1.025,7.3,7.3,0,0,1,1.025.394q.71.315,1.025.473.552.315.867.473a1.531,1.531,0,0,1,.71,1.183,2.094,2.094,0,0,1-.788,1.577,1.825,1.825,0,0,1-.394.237q-.158.158-.237.158a13.944,13.944,0,0,1-2.444,1.813,16.455,16.455,0,0,0-2.208,1.419,81.792,81.792,0,0,0-6.583,5.637A34.472,34.472,0,0,0,80.491-.682q2.286,0,4.652-.158,14.9-.552,23.732-3.627a.89.89,0,0,1,.631-.079q0-.631.079-1.971t.079-1.577q.079-2.917,0-4.809-.394-5.44-2.917-7.727a13.39,13.39,0,0,0-4.967-2.208q-1.025-.315-3.233-.788t-3.233-.788a11.614,11.614,0,0,1-1.261-.394L92.87-23.231a10.969,10.969,0,0,0-.946,1.34A1.99,1.99,0,0,0,91.687-21.418Zm3.39,4.494q-.237-.079-.867-.315l-.867-.473a12.759,12.759,0,0,1-2.286-1.183A3.81,3.81,0,0,1,89.479-21.1a3.572,3.572,0,0,1,.473-1.892,15.179,15.179,0,0,1,1.183-1.577l.788-1.1a8.1,8.1,0,0,1-2.129-1.5,2.667,2.667,0,0,1-.631-.71,24.053,24.053,0,0,1-.946,4.928A33.666,33.666,0,0,1,86.641-18.5l-2.286,4.967Q81.437-7.3,80.413-4.309a65.294,65.294,0,0,1,9.934-9.382,23.139,23.139,0,0,1,2.523-1.577A15.492,15.492,0,0,0,95-16.766.227.227,0,0,1,95.077-16.924Zm-5.6,10.092v-.079a.976.976,0,0,1,1.1-1.1h1.34l.315.158a.936.936,0,0,1,.552,1.025,1.207,1.207,0,0,1-.552.867.227.227,0,0,1-.158.079.227.227,0,0,1-.158.079h-.394l-.788.158a1.018,1.018,0,0,1-.828-.2,1.151,1.151,0,0,1-.434-.749Zm-8.121-53.14q2.838,7.1,6.938,10.565a10.442,10.442,0,0,0,5.913,2.6Q87.43-49.88,82.778-60.6v-.158a8.934,8.934,0,0,0-1.419.71ZM98.94-37.107a5.39,5.39,0,0,0,4.021,4.021,8.067,8.067,0,0,0,2.759,0q-2.444-.71-3.942-4.179A23.034,23.034,0,0,1,100.36-42l-.315.158A20.9,20.9,0,0,1,97.837-37.9,1.038,1.038,0,0,1,98.94-37.107Zm-3.469,4.652a3.941,3.941,0,0,0,4.1,1.971,10.6,10.6,0,0,0,2.681-.552q-4.021-.946-5.361-5.44a.07.07,0,0,1-.079-.079,5.674,5.674,0,0,1-.71.867,18.923,18.923,0,0,1-5.834,4.257,3.625,3.625,0,0,0,1.025,2.681,6.435,6.435,0,0,0,2.129,1.34,1.045,1.045,0,0,1,1.1,0,.938.938,0,0,1,.473.631,6.227,6.227,0,0,1,.946.237q1.025.315,3.154.788t3.311.788a14.3,14.3,0,0,1,5.755,2.759q3.233,2.838,3.706,9.146.079,1.971,0,5.046-.158,4.021-.158,4.494a.976.976,0,0,1-1.1,1.1,1.4,1.4,0,0,1-.631-.158l-.315.158Q100.517.816,85.222,1.368q-3.154.158-6.15.079v.237a1.226,1.226,0,0,1-.394.749,1.017,1.017,0,0,1-.788.237,1.069,1.069,0,0,1-.749-.355,1.154,1.154,0,0,1-.276-.788V1.447Q66.694,1.052,60.7-1.076A.971.971,0,0,1,60.071-2.5a.938.938,0,0,1,1.1-.71,34.078,34.078,0,0,1-.394-9.934q.788-6.623,4.731-9.382A12.96,12.96,0,0,1,68.271-24.1a29.484,29.484,0,0,1,3.469-1.183q1.971-.552,2.523-.788a11.016,11.016,0,0,0,3.272-1.774A7.4,7.4,0,0,0,79.624-30.8a19.066,19.066,0,0,1-2.759-1.34l-.946-.631a13.129,13.129,0,0,1-7.332.788,41.351,41.351,0,0,1-4.1-1.5,8.642,8.642,0,0,0,5.125,2.641,33.2,33.2,0,0,0,7.569.2,1.31,1.31,0,0,1,.828.276.9.9,0,0,1,.355.749,1.31,1.31,0,0,1-.276.828.9.9,0,0,1-.749.355,22.3,22.3,0,0,1-4.652.158,28.884,28.884,0,0,1-4.731-.67,10.207,10.207,0,0,1-4.179-2.129A10.9,10.9,0,0,1,60.7-35.215a1.23,1.23,0,0,1,0-.867.978.978,0,0,1-.394-1.183.948.948,0,0,1,1.34-.71,7.653,7.653,0,0,0,4.967.079,5.162,5.162,0,0,0,2.6-2.838q1.656-3.311,1.656-10.486a.976.976,0,0,1,1.1-1.1.878.878,0,0,1,.394.079l.158-.394a26.326,26.326,0,0,1,2.05-3.784,8.583,8.583,0,0,1-.631-2.838,1.31,1.31,0,0,1,.276-.828.9.9,0,0,1,.749-.355,1.31,1.31,0,0,1,.828.276.9.9,0,0,1,.355.749,4.011,4.011,0,0,0,.079.788q5.6-6.307,12.615-4.967a1.2,1.2,0,0,1,.946.079q2.523,1.34,3.784,2.168a24.028,24.028,0,0,1,3.035,2.484,14.95,14.95,0,0,1,2.878,3.627q.473.867.867,1.735a1.488,1.488,0,0,1,.473-.079.9.9,0,0,1,.749.355,1.31,1.31,0,0,1,.276.828,39.9,39.9,0,0,0,.237,7.411,1.19,1.19,0,0,1,.473.394,1.054,1.054,0,0,1-.158,1.419,20.365,20.365,0,0,0,1.34,4.967q1.34,3,3.075,3.154,2.286.237,5.677-3.706a1.015,1.015,0,0,1,1.616-.118.966.966,0,0,1,.118,1.537,18.485,18.485,0,0,1-3.706,3.311,2.105,2.105,0,0,1,.394.552.971.971,0,0,1-.631,1.419,16.467,16.467,0,0,1-3.469,1.1,1.2,1.2,0,0,1-.631.71,17.448,17.448,0,0,1-6.465,1.971,6.03,6.03,0,0,1-6.15-3.075.968.968,0,0,1,.394-1.5A.968.968,0,0,1,95.471-32.456Zm-15.3-7.805a4.772,4.772,0,0,0,3.43,1.5,6.541,6.541,0,0,0,3.9-1.1.968.968,0,0,1,1.5.394.968.968,0,0,1-.394,1.5,8.1,8.1,0,0,1-5.125,1.38A6.61,6.61,0,0,1,78.6-38.842a.934.934,0,0,1,.039-1.537A.936.936,0,0,1,80.176-40.261Zm-.788-7.017a.976.976,0,0,1,1.1,1.1.976.976,0,0,1-1.1,1.1.976.976,0,0,1-1.1-1.1A.976.976,0,0,1,79.388-47.278Z" transform="translate(-11.881 63.833)" fill="rgba(0,0,0,0.7)" opacity="0.4"/>
</svg>
