<svg viewBox="0 0 823.64 597" xmlns="http://www.w3.org/2000/svg" xmlns:xlink="http://www.w3.org/1999/xlink"><linearGradient id="a" gradientTransform="matrix(1 0 0 -1 -.33 598)" gradientUnits="userSpaceOnUse" x1="184.46" x2="188.29" y1="411.38" y2="421.79"><stop offset=".36" stop-color="#00272e"/><stop offset=".75" stop-color="#3f80a1" stop-opacity=".25"/><stop offset="1" stop-color="#69b9eb" stop-opacity="0"/></linearGradient><linearGradient id="b" gradientUnits="userSpaceOnUse" x1="444.69" x2="323.69" y1="31.61" y2="461.61"><stop offset="0" stop-opacity="0"/><stop offset=".91" stop-opacity=".8"/><stop offset="1"/></linearGradient><linearGradient id="c" x1="405.84" x2="332.84" xlink:href="#b" y1="149.83" y2="499.83"/><linearGradient id="d" x1="412.49" x2="339.49" xlink:href="#b" y1="151.21" y2="501.21"/><linearGradient id="e" x1="420.97" x2="347.97" xlink:href="#b" y1="152.99" y2="502.99"/><linearGradient id="f" gradientTransform="matrix(1 0 0 -1 -.33 598)" gradientUnits="userSpaceOnUse" x1="683.34" x2="704.34" y1="447.17" y2="447.17"><stop offset="0" stop-color="#ecc4d7"/><stop offset=".42" stop-color="#efd4d1"/><stop offset="1" stop-color="#f2eac9"/></linearGradient><linearGradient id="g" x1="694.49" x2="690.16" xlink:href="#f" y1="458.85" y2="410.3"/><linearGradient id="h" x1="664.58" x2="709.1" xlink:href="#f" y1="476.09" y2="476.09"/><linearGradient id="i" x1="764.44" x2="823.98" xlink:href="#f" y1="512.88" y2="512.88"/><linearGradient id="j" x1="810.28" x2="804.26" xlink:href="#f" y1="519.93" y2="566.67"/><linearGradient id="k" gradientTransform="matrix(-.84860256 -.5290309 .5290309 -.84860256 868.81 888.98)" x1="619.54" x2="679.08" xlink:href="#f" y1="589.29" y2="589.29"/><linearGradient id="l" gradientTransform="matrix(-.84860256 -.5290309 .5290309 -.84860256 868.81 888.98)" x1="665.61" x2="659.59" xlink:href="#f" y1="596.46" y2="643.2"/><linearGradient id="m" gradientTransform="matrix(1 0 0 -1 -.33 598)" gradientUnits="userSpaceOnUse" x1="533.17" x2="540.88" y1="127.89" y2="95.77"><stop offset="0" stop-color="#68e1fd"/><stop offset=".01" stop-color="#67ddf9"/><stop offset=".12" stop-color="#5cb3ce"/><stop offset=".24" stop-color="#538ea9"/><stop offset=".37" stop-color="#4c718b"/><stop offset=".5" stop-color="#465a73"/><stop offset=".63" stop-color="#424a63"/><stop offset=".79" stop-color="#404059"/><stop offset=".99" stop-color="#3f3d56"/></linearGradient><linearGradient id="n" x1="723.22" x2="736.07" xlink:href="#m" y1="106.25" y2="88.27"/><linearGradient id="o" x1="691.29" x2="834.32" xlink:href="#b" y1="111.67" y2="428.15"/><path d="m131.3 125c-24.34 5.16-49.64 10.76-69.18 26.17-16.5 13-42.21 37-50 56.5-33 82.37 4.31 182.6 76.73 233.86 34.06 24.11 76.51 35.78 107.12 64.16 19.36 17.95 32.92 41.71 53.52 58.21 30.1 24.09 70.74 29.42 109.2 32 26.72 1.81 54.48 2.59 79.27-7.57 17.92-7.34 33.1-19.93 48-32.34l98.71-82.43c15.86-13.23 30.69-34.3 51.34-34.16 185.86 1.33 198.39-217.4-86.86-314.28-25.14-8.54-42.38-32.28-66-44.45-48.79-25.15-104.94-17-154.15.4-62.48 22.15-132.86 30.14-197.7 43.93z" fill="#68e1fd" opacity=".18"/><path d="m779.07 477.86c7.78.13 17.8 2.07 19 9.75.65 4-1.64 7.89-4.12 11.12-15.51 20.27-41.21 30.52-66.57 33.27s-50.92-1.1-76.24-4.22q-54.89-6.78-110.2-9c-26.22-1.06-53.8-1.72-76.38-15.08-4.19-2.47-8.31-5.56-10.32-10-4-8.83 2.32-19.58 11-23.87s18.88-3.87 28.56-3.35c95.06 5.12 190.05 11.38 285.27 11.38z" fill="#000405" opacity=".05"/><path d="m779.4 126.4s-33.83 43.75-40.25 51.08c-11.71 13.32-19.26 30.79-19.26 30.79l-17 72.34-19-5.07-41.31-11s14.68-39.54 7.57-51.54c-9.48-16-1.28-26 .88-32.87 4-12.73-16.43-36-16.43-36l-13.09-58.63 19.76-2.64 14.34 47.53 24.57 21.93 17.5.93s13.2 2.72 22.8-1.72c9.18-4.26 41.61-40.83 41.61-40.83l13.23 12z" fill="#68e1fd"/><path d="m617.33 200.59v260.56a24.86 24.86 0 0 1 -24.87 24.85h-389.69a24.86 24.86 0 0 1 -24.86-24.86v-260.55a24.86 24.86 0 0 1 24.83-24.87h389.72a24.86 24.86 0 0 1 24.87 24.87z" fill="#68e1fd"/><path d="m610.59 183.67h-426.59l3.46-2.65a6.12 6.12 0 0 1 .5-.39l202.92-155.56 6.41-4.91 206.47 158.28z" fill="#68e1fd"/><path d="m617.33 200.59-5.19 3.75-37.79 27.37-183.47 132.89-176.45-135.89-36.52-28.12.47-4.83a24.67 24.67 0 0 1 6.18-12.09 23.32 23.32 0 0 1 2.88-2.65 6.12 6.12 0 0 1 .5-.39 24.7 24.7 0 0 1 14.83-4.91h389.69a24.89 24.89 0 0 1 24.75 22.47q.12 1.2.12 2.4z" fill="#68e1fd"/><path d="m187.44 181a24.92 24.92 0 0 0 -2.88 2.65h-.56z" fill="url(#a)" opacity=".61"/><path d="m617.33 200.59-5.19 3.76-37.79 27.36-183.47 132.89-176.45-135.88-36.52-28.13.47-4.82a24.92 24.92 0 0 1 9.06-14.77l.5-.38 202.94-155.55 6.41-4.91 206.47 158.28a24.83 24.83 0 0 1 13.45 19.76 23.76 23.76 0 0 1 .12 2.39z" fill="url(#b)"/><path d="m574.35 181.34v50.38l-67.71 49-15.53 11.28-100.23 72.6-94.27-72.6-14.61-11.24-67.59-52v-47.42a14.77 14.77 0 0 1 14.77-14.77h330.41a14.78 14.78 0 0 1 14.76 14.77z" fill="#fff"/><path d="m524.73 225.51h-267a5.62 5.62 0 0 1 -5.62-5.62 5.62 5.62 0 0 1 5.62-5.62h267a5.62 5.62 0 0 1 5.62 5.62 5.62 5.62 0 0 1 -5.62 5.62z" fill="url(#c)"/><path d="m524.73 258.76h-267a5.62 5.62 0 0 1 -5.62-5.62 5.62 5.62 0 0 1 5.62-5.62h267a5.62 5.62 0 0 1 5.62 5.62 5.62 5.62 0 0 1 -5.62 5.62z" fill="url(#d)"/><path d="m506.64 280.76-15.53 11.24h-194.5l-14.6-11.24z" fill="url(#e)"/><path d="m390.88 364.6-162.86 121.42h329.08z" fill="#000405" opacity=".05"/><path d="m250.4 90.2c-8.2-17.59-39-14.7-39-14.7 19-11.21 15.36-39.68 15.13-41.36 8.31 24.82 37 19.34 39.57 18.8-19.05 4.7-15.7 37.26-15.7 37.26z" fill="#68e1fd"/><path d="m197 126.29c-5.21-11.18-24.8-9.34-24.8-9.34 12.4-7.37 9.59-26.34 9.59-26.34v.11c5.32 15.69 23.52 12.21 25.14 11.87-12.06 3-9.93 23.7-9.93 23.7z" fill="#68e1fd"/><path d="m721.56 92.7a12.38 12.38 0 0 1 8.56-2.7 9 9 0 0 1 6.2 2.14 9.85 9.85 0 0 1 2.42 5.33 30.59 30.59 0 0 1 .55 7.46c-.22 4.59-1.41 9.45.57 13.6a9.58 9.58 0 0 0 1.88 2.66 5.24 5.24 0 0 0 3.48 1.73 2.79 2.79 0 0 0 2.86-2.24 10.62 10.62 0 0 1 -14.08 5.32 11.06 11.06 0 0 1 -2.32-1.43l1.74 3.53a19.92 19.92 0 0 1 -4.16-1.58c-4.25-2.31-6.63-7-7.76-11.74-1-4.35-1.2-8.84-2.14-13.21-.69-3.33-.51-6.45 2.2-8.87z" fill="#3f3d56"/><path d="m720.28 97.5a6.89 6.89 0 0 1 2.54.39 4 4 0 0 1 2.45 3.35 3.77 3.77 0 0 1 -2.08 3.57 6.42 6.42 0 0 1 -2.7.47c-.84 0-1.69 0-2.53-.08a1.09 1.09 0 0 1 -1.16-.84 14.94 14.94 0 0 1 -1.23-3.43c-.69-3.68 1.79-3.46 4.71-3.43z" fill="#68e1fd"/><path d="m704 132.61s-.16 2.89-.36 6.65c-.17 3.17-.38 7-.55 10.18a21.37 21.37 0 0 1 -6.47 14.2c-2.26 2.31-7.65 6.62-11.76 5.09-2-.74-2.07-3.26-1.65-4.77a29.5 29.5 0 0 0 1.53-8.53 29.92 29.92 0 0 0 -.63-7c-2.57-6.43 19.89-15.82 19.89-15.82z" fill="url(#f)"/><path d="m704 132.61s-.16 2.89-.36 6.65c-1.58 3.52-3.06 6.39-3.87 7.82-1.63 2.89-8.33 7.44-15 8.35a29.92 29.92 0 0 0 -.63-7c-2.6-6.43 19.86-15.82 19.86-15.82z" fill="url(#g)"/><path d="m684.44 94.32a21.49 21.49 0 0 0 -20.15 22.75c0 .51.08 1 .15 1.52a72.68 72.68 0 0 0 6.62 25.22c7 12 24.74 2.13 27.55-2.81s13.59-27.22 9.06-33.53c-3.12-4.26-11.77-13.61-23.23-13.15z" fill="url(#h)"/><path d="m678.14 82.13a37.24 37.24 0 0 1 22.94.67c7.27 2.76 13.54 8.44 16.31 15.71a28.61 28.61 0 0 1 -.64 20.7 40.44 40.44 0 0 1 -13 16.43c-1.47-4.5 3.06-8.5 4.82-12.89a3.61 3.61 0 0 0 .25-2.62c-.64-1.63-3.08-1.81-4.47-.75s-2 2.85-2.51 4.52c1.35-7.15 2.35-15.55-2.71-20.79-3-3.1-7.53-4.26-11.85-4.3a29 29 0 0 0 -21.19 9.11c-1.59 1.71-3.85 3.81-5.87 2.63a4 4 0 0 1 -1.42-1.73c-5.97-11.82 9.71-24.05 19.34-26.69z" fill="#3f3d56"/><path d="m687.8 95.34c-5-2.2-10.25-4-15.68-4s-11.06 1.84-14.65 5.92a20.56 20.56 0 0 0 -4 7.77 14.08 14.08 0 0 0 -.7 5.54 23.89 23.89 0 0 0 1 4c.94 3.24 1.34 7-.71 9.72a4.39 4.39 0 0 1 -3.34 1.86 2.72 2.72 0 0 1 -2.74-2.33c-.88 2.49.56 5.41 2.85 6.72a9.38 9.38 0 0 0 7.67.37 8.24 8.24 0 0 0 2.83-1.55 9.71 9.71 0 0 0 2-2.75c2.09-3.79 3.14-8 4.7-12.09s3.82-8 7.51-10.3a19.37 19.37 0 0 1 9.54-2.37c3.31-.11 6.64.16 9.94-.14s.91-2.26-.51-3.29a31.76 31.76 0 0 0 -5.71-3.08z" fill="#3f3d56"/><path d="m822.11 59.49c.85.66-7.11 6.86-7.11 6.86s-3.72 6.41-7.5 8.19-32.18 48.15-32.18 48.15l-11.21-10.16 24.18-32.53s8-15.33 7.11-22c0 0 .48-7.88 2.89-4.22 1.7 2.61.61 6.72 2.62 7.16a1.1 1.1 0 0 0 .64-.14 22.53 22.53 0 0 0 4.55-3.64c4-3.81 8.78-9.11 8.78-9.11s2.62-1.11 2.29 0-5.14 8.6-5.41 9c.45-.41 7.83-7 9-6.49s-5.72 8.1-6.12 8.54c.43-.3 8.3-5.78 8.89-5.29 1.11.93-6 7.1-6.59 7.57.45-.24 4.36-2.53 5.17-1.89z" fill="url(#i)"/><path d="m813.67 64.24a4 4 0 0 1 -1.85.15 51.07 51.07 0 0 0 -6.06-.1c-1.36.06-4.17 1-4.24-1.11 0-.56.14-1.11.11-1.67a4.45 4.45 0 0 0 -.1-.72 22.53 22.53 0 0 0 4.55-3.64 6.63 6.63 0 0 1 1.72.87l3.94 2.55c.7.46 1.4.92 2.07 1.42a1.81 1.81 0 0 1 .68.77 1.3 1.3 0 0 1 -.82 1.48z" fill="url(#j)"/><path d="m618.4 7.42c-1.08.12 2.42 9.58 2.42 9.58s-.22 7.41 2 10.91 2 57.15 2 57.15l14.88-2-3.38-40.41s1.29-17.24 5.56-22.43c0 0 3.74-6.95-.23-5.11-2.82 1.32-4.07 5.38-6 4.7a1 1 0 0 1 -.47-.46 21.9 21.9 0 0 1 -2-5.49c-1.41-5.35-2.65-12.37-2.65-12.37s-1.6-2.3-1.86-1.19-.17 10-.16 10.51c-.17-.57-3-10.09-4.25-10.26s.59 9.9.71 10.48c-.22-.48-4-9.28-4.78-9.18-1.43.21 1.41 9.23 1.62 9.9-.28-.44-2.39-4.43-3.41-4.33z" fill="url(#k)"/><path d="m623 15.91a4 4 0 0 0 1.53 1.09 52.6 52.6 0 0 1 5.2 3.12c1.13.77 3 3.07 4.19 1.29.32-.46.47-1 .79-1.47a6.47 6.47 0 0 1 .47-.57 21.9 21.9 0 0 1 -2-5.49 6.54 6.54 0 0 0 -1.92-.16l-4.69.09a19.32 19.32 0 0 0 -2.52.11 1.78 1.78 0 0 0 -1 .3 1.29 1.29 0 0 0 -.05 1.69z" fill="url(#l)"/><path d="m565.67 479.21c-4 8.17-6.91 14.52-6.91 14.52l-50.33 2.4s8.34-22.07 21.91-16.37c4.59 1.92 21.22-1.69 21.22-1.69l.52-1.67z" fill="url(#m)"/><path d="m744.05 481.68-7.71 4.32-66-69.38-7.28-92.62-60.18 54.59s1.61 37.59-19.43 67c-3.77 5.27-11.44 20.58-17.24 32.54-.18.37-.36.75-.53 1.12l-1.13-.23-3.93-.82-8.53-1.76 27.66-111.8 62.85-100.06 41.31 11 19 5.07s12.82 25.69 0 92.18l-8.5 38.06s34.26 18.27 44.82 54.41l4.77 16.36z" fill="#3f3d56"/><path d="m744.05 481.68 7.83 8.19-19.88 20.72h-26s5.54-9.15 16.62-10.6 13.73-14 13.73-14z" fill="url(#n)"/><g fill="#fff"><path d="m215.81 74.06-4.39 1.44c19-11.21 15.36-39.68 15.13-41.36.3 1.35 4.72 20.14 2.31 26.31-3.01 7.71-13.05 13.61-13.05 13.61z" opacity=".22"/><path d="m184.41 108.44c-2.32 3.21-11.54 8.16-12.17 8.49 12.4-7.37 9.59-26.34 9.59-26.34v.11c.49 1.3 4.84 14.6 2.58 17.74z" opacity=".22"/><path d="m178.65 214.27 203.67 156.71 8.56-6.38-212.97-164.01z" opacity=".22"/><path d="m397.62 369.97 219.71-158.14v-10.79l-226.45 164z" opacity=".22"/><path d="m617.21 198.64-.6 1.68-4.47 4.47c3.14-5.42-5.73-18-5.73-18l-3.54-2.65-10.63-8-201.36-150.62 6.41-4.91 206.47 158.27a24.86 24.86 0 0 1 13.45 19.76z" opacity=".22"/></g><path d="m779.4 126.4s-33.83 43.75-40.25 51.08c-11.71 13.32-19.26 30.79-19.26 30.79l-17 72.34-19-5.07s17.74-66.33 24.87-80.41 66.54-72.44 66.54-72.44z" fill="url(#o)"/><path d="m744 481.66c-.35-1-11.64-32.36-28.59-45.51-17.21-13.36-27.21-31.8-27.21-31.8-4-35.4-4.33-128.81-4.33-128.81l19 5.07s12.82 25.69 0 92.18l-8.5 38.06s34.26 18.31 44.82 54.45z" fill="#25233a"/><path d="m602.88 378.57s1.61 37.59-19.43 67c-3.77 5.27-11.44 20.58-17.24 32.54l-1.66.89-3.93-.82 32.62-102.89s39.51-46.81 46.76-51.29 23.08 0 23.08 0z" fill="#25233a"/></svg>